<svg width="210" height="210" viewBox="0 0 210 210" fill="none" xmlns="http://www.w3.org/2000/svg">
<circle cx="105" cy="105" r="105" fill="#BBE1FA"/>
<path d="M165.804 92.2894C167.391 87.5754 167.94 82.5816 167.414 77.6416C166.888 72.7016 165.299 67.9292 162.754 63.6432C158.981 57.1649 153.22 52.0358 146.301 48.9955C139.382 45.9552 131.663 45.1607 124.257 46.7266C120.05 42.1099 114.685 38.6665 108.701 36.7423C102.718 34.8182 96.326 34.4809 90.1684 35.7645C84.0108 37.048 78.3041 39.9072 73.6212 44.0548C68.9384 48.2024 65.4444 53.4925 63.4901 59.3936C58.5561 60.3916 53.8949 62.417 49.818 65.3342C45.7411 68.2515 42.3424 71.9935 39.849 76.3102C36.0348 82.7778 34.4047 90.2742 35.1943 97.7158C35.9838 105.157 39.1521 112.159 44.2411 117.707C42.6483 122.419 42.0939 127.412 42.6151 132.352C43.1362 137.292 44.7209 142.065 47.263 146.353C51.0409 152.833 56.8072 157.964 63.7309 161.004C70.6545 164.044 78.378 164.838 85.7883 163.27C89.131 166.983 93.2385 169.95 97.8363 171.973C102.434 173.995 107.416 175.027 112.451 174.999C120.042 175.006 127.439 172.634 133.574 168.224C139.709 163.814 144.264 157.596 146.583 150.466C151.517 149.466 156.177 147.44 160.254 144.523C164.331 141.605 167.73 137.864 170.224 133.548C173.993 127.09 175.596 119.622 174.802 112.212C174.008 104.801 170.858 97.8276 165.804 92.2894ZM112.451 165.836C106.234 165.846 100.212 163.697 95.4406 159.765L96.2797 159.296L124.537 143.207C125.24 142.8 125.824 142.22 126.231 141.523C126.639 140.826 126.855 140.037 126.859 139.232V99.934L138.805 106.751C138.864 106.78 138.915 106.823 138.954 106.876C138.993 106.929 139.019 106.99 139.03 107.054V139.619C139.015 146.568 136.21 153.228 131.228 158.141C126.247 163.055 119.495 165.822 112.451 165.836ZM55.3204 141.772C52.2025 136.461 51.083 130.236 52.1589 124.192L52.9986 124.689L81.2838 140.778C81.9837 141.183 82.7805 141.397 83.5919 141.397C84.4034 141.397 85.2002 141.183 85.9 140.778L120.453 121.129V134.734C120.449 134.805 120.43 134.874 120.396 134.936C120.362 134.998 120.314 135.052 120.256 135.093L91.6351 151.376C85.527 154.847 78.2722 155.785 71.4636 153.984C64.6549 152.183 58.8489 147.791 55.3204 141.772ZM47.8786 81.0574C51.0181 75.7127 55.9734 71.6362 61.8674 69.5494V102.666C61.8568 103.466 62.064 104.255 62.4675 104.949C62.871 105.643 63.4559 106.217 64.1613 106.613L98.5459 126.179L86.5996 132.995C86.535 133.029 86.4629 133.047 86.3897 133.047C86.3165 133.047 86.2444 133.029 86.1797 132.995L57.6149 116.741C51.5182 113.255 47.0705 107.528 45.2456 100.814C43.4207 94.1002 44.3675 86.9465 47.8786 80.9197V81.0574ZM146.024 103.549L111.528 83.7897L123.446 76.9997C123.511 76.9659 123.583 76.9482 123.656 76.9482C123.729 76.9482 123.801 76.9659 123.866 76.9997L152.431 93.2823C156.798 95.7682 160.359 99.4283 162.697 103.835C165.035 108.242 166.053 113.215 165.634 118.171C165.214 123.128 163.374 127.865 160.328 131.828C157.282 135.792 153.155 138.819 148.43 140.557V107.44C148.405 106.641 148.171 105.862 147.749 105.18C147.327 104.498 146.733 103.937 146.024 103.549ZM157.915 85.9148L157.075 85.4178L128.846 69.1907C128.142 68.7831 127.34 68.5682 126.524 68.5682C125.707 68.5682 124.905 68.7831 124.201 69.1907L89.6777 88.8396V75.2346C89.6703 75.1654 89.6821 75.0956 89.7116 75.0324C89.7412 74.9693 89.7875 74.9152 89.8456 74.8758L118.411 58.6207C122.788 56.1329 127.794 54.9261 132.842 55.1415C137.89 55.3568 142.771 56.9855 146.915 59.8369C151.059 62.6882 154.294 66.6445 156.242 71.243C158.19 75.8415 158.77 80.892 157.915 85.804L157.915 85.9148ZM83.1579 110.034L71.2122 103.245C71.1524 103.209 71.1013 103.161 71.0625 103.104C71.0237 103.047 70.9981 102.982 70.9875 102.914V70.4326C70.9941 65.4496 72.4386 60.5715 75.1522 56.3685C77.8658 52.1655 81.7364 48.8113 86.3113 46.6982C90.8862 44.5851 95.9764 43.8004 100.987 44.4357C105.997 45.0711 110.721 47.1003 114.605 50.2861L113.765 50.7556L85.5085 66.8439C84.8053 67.2508 84.2214 67.8311 83.8142 68.5279C83.407 69.2247 83.1906 70.0139 83.1862 70.8182L83.1579 110.034ZM89.6487 96.2357L105.036 87.4869L120.453 96.2357V113.732L105.092 122.48L89.6771 113.732L89.6487 96.2357Z" fill="#0F4C75"/>
</svg>
