<svg width="210" height="210" viewBox="0 0 210 210" fill="none" xmlns="http://www.w3.org/2000/svg">
<circle cx="105" cy="105" r="105" fill="#BBE1FA"/>
<path d="M154.997 130.927V79.3262C163.496 77.0753 170 69.3112 170 60.0383C169.983 54.7291 167.87 49.6423 164.123 45.8881C160.376 42.1339 155.299 40.0172 149.999 40C145.577 39.9959 141.28 41.4729 137.792 44.1964C134.304 46.9198 131.824 50.7333 130.748 55.0307H79.2523C76.9975 46.5163 69.248 40.0082 60.0006 40.0082C54.7022 40.0232 49.6249 42.1381 45.8775 45.891C42.1302 49.6439 40.0172 54.7298 40 60.0383C40 69.303 46.4959 77.0671 55.0025 79.3262V130.674C46.4959 132.925 40 140.689 40 149.962C40.0172 155.271 42.1299 160.358 45.877 164.112C49.6241 167.866 54.7014 169.983 60.0006 170C70.2492 170 78.5034 162.236 79.7489 152.465H129.999C131.252 162.236 139.751 170 149.747 170C155.046 169.983 160.124 167.866 163.871 164.112C167.618 160.358 169.73 155.271 169.748 149.962C170 140.942 163.496 133.178 154.997 130.927ZM76.5009 138.935L93.7502 121.654C96.9981 123.905 100.751 125.161 105 125.161C109.249 125.161 113.002 123.905 116.25 121.654L133.499 138.935C132.184 140.824 131.249 142.952 130.748 145.199H79.2523C78.6973 142.97 77.7668 140.851 76.5009 138.935ZM71.2505 76.5696L88.4997 93.8513C86.253 97.1054 84.9994 100.865 84.9994 105.122C84.9994 109.38 86.253 113.139 88.4997 116.393L71.2505 133.675C68.6773 131.824 65.655 130.7 62.4997 130.421V79.8319C65.6548 79.5458 68.6761 78.4194 71.2505 76.5696ZM133.499 71.3093L116.25 88.591C113.002 86.34 109.249 85.0841 105 85.0841C100.751 85.0841 96.9981 86.34 93.7502 88.591L76.5009 71.3093C78.2511 68.8055 79.5047 65.7961 79.7489 62.542H129.999C130.495 65.8043 131.749 68.8055 133.499 71.3093ZM138.75 133.675L121.5 116.393C123.747 113.139 125.001 109.38 125.001 105.122C125.001 100.865 123.747 97.1054 121.5 93.8513L138.75 76.5696C141.249 78.3231 144.252 79.579 147.5 79.8237V130.168C144.244 130.674 141.249 131.922 138.75 133.675ZM149.999 47.5195C156.495 47.5195 162.503 53.5301 162.503 60.0464C162.503 66.5627 156.503 72.5734 149.999 72.5734C143.503 72.5734 137.496 66.5627 137.496 60.0464C137.496 53.5301 143.495 47.5195 149.999 47.5195ZM47.4972 60.0383C47.4972 53.5301 53.4966 47.5113 60.0006 47.5113C66.5047 47.5113 72.5041 53.522 72.5041 60.0383C72.5041 66.5546 66.4966 72.5653 60.0006 72.5653C53.5047 72.5653 47.4972 66.5546 47.4972 60.0383ZM60.0006 162.733C53.5047 162.733 47.4972 156.723 47.4972 150.206C47.4972 143.698 53.4966 137.679 60.0006 137.679C66.5047 137.679 72.5041 143.69 72.5041 150.206C72.4959 156.723 66.4966 162.733 60.0006 162.733ZM149.999 162.733C143.503 162.733 137.496 156.723 137.496 150.206C137.496 143.698 143.495 137.679 149.999 137.679C156.495 137.679 162.503 143.69 162.503 150.206C162.495 156.723 156.495 162.733 149.999 162.733Z" fill="#0F4C75"/>
</svg>
