<svg width="210" height="210" viewBox="0 0 210 210" fill="none" xmlns="http://www.w3.org/2000/svg">
<circle cx="105" cy="105" r="105" fill="#BBE1FA"/>
<path d="M157.813 142.455C157.124 141.07 156.436 139.685 156.436 138.3C156.436 135.53 155.059 133.453 152.993 131.376C152.305 130.683 150.928 129.991 150.239 129.991C154.37 117.527 148.174 105.063 141.289 96.0609C135.781 87.7515 127.52 81.5195 128.208 70.4403C128.208 57.2838 129.585 33.0481 105.488 35.1254C80.7029 36.5103 87.5877 62.1309 86.8992 71.1327C86.8992 78.7497 83.4568 86.3666 77.9489 92.5986C76.572 93.9835 75.195 96.0609 74.5065 97.4458C67.6217 105.755 64.1793 116.834 64.1793 127.221C62.8023 128.606 61.4254 129.991 60.7369 131.376C60.0484 132.068 59.3599 132.761 59.3599 133.453C58.6715 134.146 57.2945 134.838 55.9175 135.53C53.1636 136.223 51.0982 137.608 49.7212 140.378C49.0327 142.455 48.3442 145.225 49.0327 147.995C49.7212 149.379 49.7212 150.764 49.0327 152.842C47.6558 155.611 47.6558 159.074 49.0327 162.536C51.0982 165.306 54.5406 165.998 59.3599 166.691C62.8024 166.691 66.9332 168.076 70.3756 169.46C73.8181 171.538 77.9489 172.923 82.0798 172.923C84.1453 172.923 86.8992 172.23 88.9646 171.538C91.0301 170.153 92.4071 168.768 93.0955 166.691C95.8495 166.691 99.9803 165.306 104.8 165.306C108.931 165.306 113.061 166.691 118.569 165.998C118.569 166.691 118.569 167.383 119.258 168.076C120.635 171.538 124.077 174.308 128.208 175H129.585C135.093 174.308 140.601 171.538 144.043 167.383C146.797 164.613 150.239 162.536 153.682 161.151C157.813 159.074 160.567 157.689 161.255 154.227C161.944 149.379 160.567 146.61 157.813 142.455ZM110.308 53.8215C114.438 54.514 117.881 57.9762 117.192 62.1309C117.192 64.2082 116.504 66.2856 115.127 68.3629H114.438C113.061 67.6705 112.373 67.6705 111.685 66.978C112.373 66.2856 112.373 64.9007 113.061 63.5158C113.061 60.746 111.685 58.6687 110.308 58.6687C108.242 58.6687 106.865 60.746 106.865 63.5158V64.2082C106.177 63.5158 104.8 63.5158 104.111 62.8233V62.1309C103.423 58.6687 106.177 54.514 110.308 53.8215ZM108.242 67.6705C108.931 68.3629 110.308 69.0554 110.996 69.0554C111.685 69.0554 113.061 69.7478 113.75 70.4403C115.127 71.1327 116.504 71.8252 116.504 73.9025C116.504 75.9799 114.438 78.0572 110.308 79.4421C108.931 80.1346 108.242 80.1346 107.554 80.827C105.488 82.2119 103.423 82.9044 100.669 82.9044C98.6034 82.9044 96.5379 81.5195 95.161 80.1346C94.4725 79.4421 93.784 78.7497 92.4071 78.0572C91.7186 77.3648 90.3416 75.9799 89.6531 73.9025C89.6531 73.2101 90.3416 72.5176 91.0301 71.8252C93.0955 70.4403 93.784 69.7478 94.4725 69.0554L95.161 68.3629C96.5379 66.2856 99.2919 64.9007 102.046 64.9007C104.111 65.5931 106.177 66.2856 108.242 67.6705ZM93.784 55.2064C96.5379 55.2064 98.6034 57.9762 99.2919 62.8233V64.2082C98.6034 64.2082 97.2264 64.9007 96.5379 65.5931V64.2082C96.5379 62.1309 95.161 60.0536 93.784 60.746C92.407 60.746 91.7186 62.8233 91.7186 64.9007C91.7186 66.2856 92.4071 66.978 93.0955 67.6705C93.0955 67.6705 92.4071 68.3629 91.7186 68.3629C90.3416 66.978 88.9646 64.9007 88.9646 62.8233C88.9646 58.6687 91.0301 55.2064 93.784 55.2064ZM86.8992 166.691C82.0798 168.768 75.8835 168.076 71.7526 165.306C67.6217 163.228 64.1793 162.536 59.3599 162.536C55.9175 161.843 52.4751 161.843 51.7866 160.459C51.0982 159.074 51.0982 156.996 52.4751 153.534C53.1636 151.457 53.1636 149.379 52.4751 147.302C51.7866 145.225 51.7866 143.84 52.4751 141.762C53.1636 139.685 54.5406 138.993 56.606 138.3C58.6715 137.608 60.0484 136.915 61.4254 135.53C62.1139 134.838 62.8024 134.146 63.4908 132.761C65.5563 129.991 66.9332 128.606 68.9987 128.606C73.1296 129.298 76.572 135.53 79.3259 141.762C80.7029 143.84 82.0798 146.61 84.1453 148.687C86.8992 152.149 90.3416 156.996 90.3416 159.766C90.3416 163.228 88.9646 165.306 86.8992 166.691ZM120.635 151.457C120.635 152.149 120.635 152.149 119.946 152.842C111.685 159.074 100.669 159.766 91.7186 154.919L87.5877 148.687C93.784 147.995 92.4071 139.685 79.3259 131.376C65.5563 122.374 75.195 105.755 80.0144 98.1382C80.7029 97.4458 80.7029 98.1382 77.9489 103.678C75.8835 107.832 71.7526 118.219 77.2605 125.836C77.2605 120.297 78.6374 114.757 80.7029 109.217C85.5222 100.216 88.9646 89.8288 91.0301 79.4421C91.7186 80.1346 91.7186 80.1346 92.4071 80.1346C93.0955 80.827 93.784 81.5195 94.4725 81.5195C95.8495 83.5968 98.6034 84.2892 100.669 84.2892H101.357C104.111 84.2892 106.865 83.5968 108.931 81.5195C109.619 80.827 110.308 80.1346 111.685 80.1346C113.75 79.4421 115.815 78.0572 117.881 75.9799C120.635 84.9817 123.389 93.2911 127.52 100.908C130.274 106.448 132.339 111.987 133.716 118.219C135.781 118.219 138.535 118.912 140.601 120.297C146.109 123.066 148.174 125.144 147.486 128.606H146.109C146.109 126.529 144.732 124.451 139.912 122.374C135.093 120.297 130.962 120.297 129.585 125.144C128.897 125.144 128.208 125.836 127.52 125.836C122.012 128.606 122.012 136.223 121.323 143.84C122.012 146.61 121.323 148.687 120.635 151.457ZM152.305 155.611C148.174 156.996 144.732 159.766 141.978 163.228C139.224 167.383 134.404 170.153 128.897 169.46C126.143 169.46 123.389 167.383 122.7 164.613C122.012 160.459 122.012 156.304 124.077 152.149C124.766 149.379 125.454 147.302 126.143 144.532C126.831 136.223 126.831 131.376 130.274 129.298C130.274 132.761 132.339 134.838 135.093 136.223C138.535 136.223 141.978 135.53 144.732 132.761H146.109C148.174 132.761 149.551 132.761 150.928 134.146C152.305 135.53 152.993 137.608 152.993 138.993C152.993 141.07 154.37 143.147 155.059 145.225C158.501 148.687 158.501 150.764 158.501 151.457C157.813 152.842 155.059 154.227 152.305 155.611ZM90.3416 72.5176C89.6531 72.5176 89.6531 72.5176 89.6531 73.2101C89.6531 73.2101 89.6531 73.9025 90.3416 73.9025C91.0301 73.9025 91.0301 74.595 91.0301 74.595C93.0955 77.3648 96.5379 78.7497 100.669 79.4421C104.111 78.7497 107.554 78.0572 110.996 75.2874L115.127 73.2101C115.815 73.2101 115.815 72.5176 115.815 72.5176C115.815 71.8252 115.815 71.8252 115.127 71.8252C113.75 72.5176 111.685 73.2101 110.308 73.9025C107.554 75.9799 104.111 77.3648 100.669 77.3648C97.2264 77.3648 94.4725 75.2874 92.4071 73.2101C91.7186 73.2101 91.0301 72.5176 90.3416 72.5176Z" fill="#0F4C75"/>
</svg>
