<svg width="210" height="210" viewBox="0 0 210 210" fill="none" xmlns="http://www.w3.org/2000/svg">
<circle cx="105" cy="105" r="105" fill="#BBE1FA"/>
<path d="M155.556 49.9954H132.589C132.083 47.9203 131.674 45.8952 131.409 44.1952C131.266 43.2805 130.88 42.4252 130.295 41.7249C129.711 41.0246 128.95 40.5068 128.099 40.2294C127.247 39.9519 126.338 39.9256 125.473 40.1536C124.608 40.3815 123.821 40.8546 123.2 41.5201C120.837 44.088 118.769 46.9322 117.037 49.9954H95.3704H94.9852L86.7278 41.4701C86.2806 41.0052 85.7496 40.6364 85.1651 40.3847C84.5806 40.1331 83.954 40.0036 83.3213 40.0036C82.6886 40.0036 82.062 40.1331 81.4775 40.3847C80.893 40.6364 80.362 41.0052 79.9148 41.4701L71.7056 49.9954H54.4444C50.6135 49.9954 46.9395 51.5758 44.2307 54.3889C41.5218 57.2021 40 61.0175 40 64.9959V124.998V134.999C40 138.977 41.5218 142.792 44.2307 145.606C46.9395 148.419 50.6135 149.999 54.4444 149.999H87.1611C86.3643 152.422 85.026 154.614 83.2559 156.395C81.4858 158.177 79.3343 159.498 76.9778 160.249C75.8869 160.622 74.96 161.387 74.3643 162.406C73.7687 163.426 73.5435 164.633 73.7295 165.81C73.9154 166.986 74.5003 168.055 75.3784 168.824C76.2566 169.592 77.3703 170.009 78.5185 170H131.481C132.566 169.999 133.619 169.617 134.469 168.917C135.318 168.217 135.916 167.239 136.164 166.143C136.412 165.046 136.296 163.895 135.835 162.875C135.374 161.855 134.595 161.027 133.624 160.524C129.066 158.388 125.371 154.665 123.176 149.999H155.556C159.386 149.999 163.06 148.419 165.769 145.606C168.478 142.792 170 138.977 170 134.999V64.9959C170 61.0175 168.478 57.2021 165.769 54.3889C163.06 51.5758 159.386 49.9954 155.556 49.9954ZM155.556 59.9958C156.833 59.9958 158.057 60.5226 158.96 61.4603C159.863 62.398 160.37 63.6698 160.37 64.9959V119.998H143.519C143.928 109.295 142.46 98.604 139.185 88.4468C141.916 84.4133 143.206 79.5165 142.832 74.601C142.459 69.6855 140.445 65.0595 137.139 61.5208C136.73 61.0572 136.374 60.5453 136.08 59.9958H155.556ZM119.444 119.998C119.002 110.046 120.408 100.098 123.585 90.6969C124.539 90.1983 125.599 89.9576 126.667 89.9969C127.714 89.9766 128.752 90.2076 129.7 90.6719C132.89 100.079 134.312 110.034 133.889 119.998H119.444ZM124.259 56.5706C125.361 60.9288 127.357 64.9882 130.109 68.4711C131.605 70.1092 132.6 72.1708 132.968 74.3955C133.337 76.6203 133.062 78.9086 132.18 80.9715C130.409 80.3234 128.544 79.9937 126.667 79.9965C125.163 79.9893 123.665 80.1911 122.213 80.5965C121.016 76.6487 120.581 72.4946 120.932 68.372C121.283 64.2493 122.414 60.239 124.259 56.5706ZM114.437 87.7218C110.967 98.0858 109.399 109.034 109.815 119.998H100.185V59.9958H112.776C110.324 69.1701 110.908 78.9339 114.437 87.7218ZM76.1111 74.9963H90.5556V119.998H76.1111V74.9963ZM83.3333 52.0455L90.5556 59.5457V64.9959H76.1111V59.5707L77.0981 58.5457L83.3333 52.0455ZM54.4444 59.9958H66.4815V119.998H49.6296V64.9959C49.6296 63.6698 50.1369 62.398 51.0399 61.4603C51.9428 60.5226 53.1675 59.9958 54.4444 59.9958ZM117.759 159.999H92.963C95.0071 156.989 96.463 153.591 97.2482 149.999H113.041C113.978 153.631 115.607 157.032 117.831 159.999H117.759ZM155.556 139.999H54.4444C53.1675 139.999 51.9428 139.472 51.0399 138.534C50.1369 137.596 49.6296 136.325 49.6296 134.999V129.998H160.37V134.999C160.37 136.325 159.863 137.596 158.96 138.534C158.057 139.472 156.833 139.999 155.556 139.999Z" fill="#0F4C75"/>
</svg>
