<svg width="210" height="210" viewBox="0 0 210 210" fill="none" xmlns="http://www.w3.org/2000/svg">
<circle cx="105" cy="105" r="105" fill="#BBE1FA"/>
<path d="M105 35C66.3478 35 35 66.3478 35 105C35 143.652 66.3478 175 105 175C143.652 175 175 143.652 175 105C175 66.3478 143.652 35 105 35ZM110.63 162.522C110.326 162.522 110.022 162.522 109.565 162.674V129.652C117.478 129.5 124.63 129.348 131.174 128.891C125.391 146.696 114.587 158.565 110.63 162.522ZM99.3696 162.522C95.2609 158.413 84.6087 146.543 78.8261 128.891C85.2174 129.348 92.5217 129.652 100.435 129.652V162.674C100.13 162.674 99.8261 162.522 99.3696 162.522ZM47.1739 105C47.1739 101.196 47.6304 97.3913 48.2391 93.7391C51.587 93.1304 57.9783 92.2174 66.9565 91.3043C66.1957 95.7174 65.7391 100.283 65.7391 105.152C65.7391 110.022 66.1957 114.587 66.8043 118.848C57.9783 117.935 51.4348 117.022 48.087 116.413C47.6304 112.609 47.1739 108.804 47.1739 105ZM75.0217 105C75.0217 99.8261 75.6304 94.9565 76.5435 90.3913C83.5435 89.9348 91.4565 89.4783 100.435 89.4783V120.522C91.6087 120.37 83.5435 120.065 76.3913 119.457C75.6304 115.043 75.0217 110.174 75.0217 105ZM110.478 47.4783C114.587 51.587 125.087 63.7609 131.022 81.1087C124.63 80.6522 117.478 80.3478 109.565 80.3478V47.3261C109.87 47.3261 110.174 47.4783 110.478 47.4783ZM100.435 47.3261V80.3478C92.5217 80.5 85.3696 80.6522 78.9783 81.1087C84.7609 63.7609 95.413 51.587 99.3696 47.4783C99.8261 47.4783 100.13 47.3261 100.435 47.3261ZM109.565 120.522V89.4783C118.391 89.6304 126.457 89.9348 133.457 90.3913C134.37 94.9565 134.978 99.8261 134.978 105C134.978 110.174 134.522 115.043 133.609 119.609C126.609 120.065 118.543 120.37 109.565 120.522ZM142.891 91.3043C151.87 92.2174 158.261 93.1304 161.609 93.7391C162.37 97.3913 162.826 101.196 162.826 105C162.826 108.804 162.37 112.609 161.761 116.261C158.413 116.87 152.022 117.783 143.043 118.696C143.804 114.283 144.109 109.717 144.109 104.848C144.109 100.283 143.652 95.5652 142.891 91.3043ZM158.87 84C154.609 83.3913 148.522 82.6304 140.761 81.8696C137.109 68.7826 130.717 58.2826 125.391 50.8261C140.761 56.6087 152.935 68.7826 158.87 84ZM84.6087 50.8261C79.1304 58.1304 72.8913 68.6304 69.2391 81.7174C61.6304 82.3261 55.5435 83.2391 51.1304 83.8478C57.0652 68.7826 69.3913 56.6087 84.6087 50.8261ZM51.1304 126C55.3913 126.609 61.4783 127.37 69.087 128.13C72.7391 141.217 78.8261 151.717 84.3043 159.022C69.087 153.087 57.0652 141.065 51.1304 126ZM125.696 159.022C131.174 151.717 137.261 141.37 140.913 128.283C148.522 127.674 154.609 126.761 158.87 126.152C152.935 141.065 140.913 153.087 125.696 159.022Z" fill="#0F4C75"/>
</svg>
