<svg width="400" height="456" viewBox="0 0 400 456" fill="none" xmlns="http://www.w3.org/2000/svg">
<g clip-path="url(#clip0_1403_7)">
<path d="M372.486 396.713L305.216 379.596L260.862 355.038L257.166 285.084H142.832L139.136 355.038L94.7825 379.596L27.5128 396.713L5.08954 445.581L-2.30273 495.194H402.301L394.909 445.581L372.486 396.713Z" fill="#F0C7B1"/>
<path d="M142.832 285.084L139.136 355.038L94.7825 379.596L27.5128 396.713L5.08954 445.581L-2.30273 495.194H33.673V445.581L40.326 401.674L98.9714 385.798L159.834 365.209L168.459 285.084H142.832Z" fill="#D19271"/>
<path d="M255.194 297.239L257.658 294.758L257.165 285.084H142.832L141.6 307.906L175.604 342.139H210.841L255.194 297.239Z" fill="#C27B55"/>
<path d="M182.258 366.945L187.186 386.542L204.188 397.953C204.188 397.953 183.243 390.511 182.751 389.022C182.258 387.534 182.258 366.945 182.258 366.945Z" fill="#D19271"/>
<path d="M408.708 495.194L388.749 407.38L376.921 398.697L373.225 393.736L329.857 376.868L308.666 337.426L299.302 333.457L281.315 311.131L258.152 303.441L259.631 330.728L256.427 355.782L234.497 378.356L214.538 402.666L208.377 415.07L204.189 407.131L193.1 397.705L165.502 378.356L143.572 355.782L140.369 330.728L141.847 303.441L118.685 311.131L100.697 333.457L91.3331 337.426L70.142 376.868L26.7739 393.736L23.0778 398.697L11.2502 407.38L-8.70898 495.194H408.708Z" fill="#DF4B4B"/>
<path d="M284.271 417.798L247.31 427.225L222.916 427.721L222.669 423.504L225.873 423.256L224.148 417.55L216.263 418.294L216.016 424L217.987 423.752V427.721H212.813L217.987 428.217L218.234 442.853L216.509 461.209L220.452 479.814L221.191 491.721L227.597 489.241L226.858 476.589L221.93 460.217L224.148 442.108L223.408 428.217L247.31 429.953L286.243 419.783L325.668 389.519L330.596 376.372L322.711 386.542L284.271 417.798ZM204.928 428.465L198.768 427.969L199.26 423.504L200.739 423.752L203.696 418.294L195.564 412.589L190.636 417.302L193.593 423.008H193.839V427.721L190.143 427.473L126.077 410.356L87.1442 383.069L91.8259 355.782L98.9718 346.356L126.077 392.744L169.691 410.604L133.223 391.007L113.264 360.247L118.685 311.131L100.943 333.209L91.5795 337.426L70.3884 376.62L26.7739 393.488L23.0778 398.449L11.2502 407.131L-8.70898 495.194H16.4247L19.6281 459.721L27.7596 414.821L34.9054 421.271L41.3121 455.752L44.269 495.194V455.008L37.8623 417.054L32.4413 406.387L35.8911 402.17L77.0414 387.286L123.613 414.077L189.65 429.457L193.347 429.209L193.1 437.643L196.55 462.202C196.55 462.202 189.158 486.512 189.65 486.76C190.39 487.256 193.839 493.706 194.086 493.21C194.332 492.465 202.71 462.202 202.71 462.202L198.028 436.403L198.768 428.713L204.928 428.465ZM140.369 330.728L141.847 303.937L131.991 316.588L130.266 337.426L143.572 356.03L140.369 330.728ZM261.355 358.015L277.865 340.899L276.14 314.108L258.152 303.441L259.631 330.728L256.427 356.03L234.497 378.604L214.538 402.914L208.377 415.318L224.394 394.232L261.355 358.015ZM216.755 413.581L273.183 401.178L300.781 367.937L308.666 337.426L299.302 333.209L293.389 365.457L272.197 397.953L216.755 413.581ZM355.977 437.643L357.948 491.225L359.18 440.62L370.268 408.124L355.977 437.643Z" fill="#D03131"/>
<path d="M292.157 360.495L295.114 334.449L280.329 319.069L283.779 344.619L258.399 384.558L223.901 406.139L269.733 394.976L292.157 360.495ZM325.668 375.875L310.391 350.821C310.884 352.309 305.216 374.387 305.216 374.387L279.836 405.147L241.643 423.007L282.793 415.318L321.479 384.061L325.668 375.875ZM386.778 410.604L377.661 405.891L371.993 419.783L381.603 442.853L391.213 490.481L401.316 490.977L386.778 410.604ZM367.804 394.48L332.321 382.573L326.161 394.976L305.709 408.868L353.512 410.356L364.601 413.333L373.718 399.441L367.804 394.48ZM163.038 385.054L138.151 359.503L129.034 341.146L125.584 342.635L133.223 371.41L161.806 393.984L197.289 407.876L204.928 417.55L196.796 403.659L163.038 385.054ZM269.241 354.046L228.09 393.984L211.827 415.069L244.846 386.294L269.241 354.046Z" fill="#EE6868"/>
<path d="M112.278 193.301L99.2178 169.238L81.9692 167.006L77.041 184.866L78.0267 206.944L95.2753 235.223L110.306 246.386L119.67 217.611L112.278 193.301Z" fill="#F0C7B1"/>
<path d="M97.4935 200.494L87.3908 176.184L82.709 188.835L83.6946 201.238L90.1013 216.37L86.1587 193.052L89.8548 191.316L93.0582 218.107L97.9863 223.316L97.4935 200.494Z" fill="#D19271"/>
<path d="M103.16 199.998L95.2748 171.223L81.9688 167.006L99.2174 169.238L112.277 193.301L119.669 217.611L110.306 246.386L95.2748 235.223L104.146 236.96L103.16 199.998Z" fill="#E1AC8F"/>
<path d="M287.72 193.301L300.78 169.238L318.029 167.006L322.957 184.866L321.971 206.944L304.723 235.223L289.692 246.386L280.328 217.611L287.72 193.301Z" fill="#F0C7B1"/>
<path d="M302.505 200.494L312.607 176.184L317.289 188.835L316.303 201.238L309.897 216.37L313.839 193.052L310.143 191.316L306.94 218.107L302.012 223.316L302.505 200.494Z" fill="#D19271"/>
<path d="M296.838 199.998L304.723 171.223L318.029 167.006L300.78 169.238L287.72 193.301L280.328 217.611L289.692 246.386L304.723 235.223L295.852 236.96L296.838 199.998Z" fill="#E1AC8F"/>
<path d="M293.882 98.2922C276.88 69.5168 245.339 49.9198 245.339 49.9198C227.598 46.1989 200 44.2144 200 44.2144C200 44.2144 172.649 46.1989 154.661 49.9198C154.661 49.9198 123.121 69.5168 106.118 98.2922C106.118 98.2922 93.5514 134.261 93.0586 159.812L96.0155 206.2L118.439 264.495L138.151 283.348L182.505 328.247H217.495L261.849 283.348L281.562 264.495L303.985 206.2L306.942 159.812C306.449 134.261 293.882 98.2922 293.882 98.2922Z" fill="#F0C7B1"/>
<path d="M183.244 322.294L123.121 261.022L104.147 202.231L104.886 157.579L115.482 102.757L158.357 58.1059L199.507 48.1834L245.339 49.9198C227.598 46.1989 200 44.2144 200 44.2144C200 44.2144 172.649 46.1989 154.661 49.9198C154.661 49.9198 123.121 69.5168 106.118 98.2922C106.118 98.2922 93.5514 134.261 93.0586 159.812L96.0155 206.2L118.439 264.495L138.151 283.348L182.505 328.247H217.495L261.849 283.348L281.562 264.495L215.031 322.542H183.244V322.294Z" fill="#D19271"/>
<path d="M168.666 267.953L174.426 276.26L200.334 274.826L226.411 276.598L232.736 268.438L224.924 273.625L210.66 268.353L200.334 271.432L190.763 268.585L174.635 272.655L168.666 267.953Z" fill="#DA7C87"/>
<path d="M177.316 281.489L179.725 287.056L200.775 293.086L223.458 285.474L200.649 290.008L180.94 285.137L177.316 281.489Z" fill="#D19271"/>
<path d="M177.331 197.518L171.17 180.153L143.326 172.215L125.092 177.673L138.891 198.262L177.331 197.518Z" fill="white"/>
<path d="M156.14 198.014L142.587 193.053L140.123 178.665L151.211 169.239L164.764 174.448L167.228 188.588L156.14 198.014Z" fill="#7B5C33"/>
<path d="M146.283 186.107L147.762 178.417L155.154 175.937L161.068 181.146L159.343 188.836L151.951 191.316L146.283 186.107Z" fill="black"/>
<path d="M145.791 176.929L151.212 182.138L152.69 181.146L149.734 174.448L145.791 176.929Z" fill="white"/>
<path d="M155.893 188.588L157.125 191.069L159.096 190.076L158.11 187.596L155.893 188.588Z" fill="white"/>
<path d="M118.932 170.975V200.495L138.398 221.332H165.996L185.462 200.495V170.975L165.996 150.138H138.398L118.932 170.975ZM125.092 177.673L143.326 172.215L171.17 180.153L177.331 197.518L138.891 198.262L125.092 177.673Z" fill="#F0C7B1"/>
<path d="M178.315 200.743L173.141 178.665L157.124 172.215L141.847 169.735L121.148 178.913L143.325 172.712L170.43 180.898L178.315 200.743Z" fill="black"/>
<path d="M222.668 197.518L228.828 180.153L256.672 172.215L274.907 177.673L261.108 198.262L222.668 197.518Z" fill="white"/>
<path d="M248.788 198.014L235.236 193.053L232.771 178.665L243.86 169.239L257.412 174.448L259.876 188.588L248.788 198.014Z" fill="#7B5C33"/>
<path d="M238.932 186.107L240.656 178.417L248.049 175.937L253.716 181.146L252.238 188.836L244.845 191.316L238.932 186.107Z" fill="black"/>
<path d="M238.686 176.929L244.107 182.138L245.585 181.146L242.628 174.448L238.686 176.929Z" fill="white"/>
<path d="M248.541 188.588L250.019 191.069L251.991 190.076L251.005 187.596L248.541 188.588Z" fill="white"/>
<path d="M261.601 149.89H234.003L214.537 170.727V200.247L234.003 221.084H261.601L281.068 200.247V170.975L261.601 149.89ZM261.108 198.262L222.669 197.518L228.829 180.153L256.673 172.215L274.907 177.673L261.108 198.262Z" fill="#F0C7B1"/>
<path d="M221.684 200.743L226.858 178.665L242.875 172.215L258.152 169.735L278.851 178.913L256.674 172.712L229.569 180.898L221.684 200.743Z" fill="black"/>
<path d="M136.426 141.952L128.541 145.425L116.221 167.75L137.165 156.339L179.794 165.518L182.012 150.634L136.426 141.952Z" fill="#2A232B"/>
<path d="M170.185 157.828L167.228 147.905L163.039 146.913L170.185 157.828ZM133.47 143.44L147.269 154.851L136.427 141.952L133.47 143.44ZM150.472 144.68L159.836 157.084L155.154 145.673L150.472 144.68ZM121.643 158.076L128.296 154.355L123.121 155.595L121.643 158.076ZM157.865 146.169L162.054 150.882L160.822 146.665L157.865 146.169ZM127.31 147.905L136.674 149.89L128.542 145.425L127.31 147.905ZM168.214 148.153L176.838 161.053L173.389 149.394L168.214 148.153Z" fill="#3A353A"/>
<path d="M217.986 150.634L220.204 165.518L262.833 156.339L283.778 167.75L271.457 145.425L263.572 141.952L217.986 150.634Z" fill="#2A232B"/>
<path d="M236.959 146.913L232.77 147.657L229.813 157.58L236.959 146.913ZM263.571 141.952L252.729 154.851L266.528 143.44L263.571 141.952ZM244.844 145.673L240.162 157.084L249.526 144.68L244.844 145.673ZM276.631 155.595L271.456 154.355L278.109 158.076L276.631 155.595ZM239.177 146.665L237.945 150.882L242.134 146.169L239.177 146.665ZM271.456 145.425L263.571 149.89L272.935 147.905L271.456 145.425ZM226.61 149.146L223.16 160.804L231.784 147.905L226.61 149.146Z" fill="#3A353A"/>
<path d="M222.914 236.464L213.92 238.126L204.852 246.585L195.464 246.684L186.15 237.977L177.92 235.719L185.485 217.14L192.483 213.195H206.528L214.635 217.015L222.914 236.464Z" fill="#F0C7B1"/>
<path d="M214.635 217.016L221.584 235.372L216.902 236.935V234.727L204.754 245.865H196.007L183.859 234.727V236.935L179.177 235.372L189.452 207.167L176.072 237.555L187.58 239.738L195.366 247.279H205.395L213.181 239.738L224.689 237.555L214.635 217.016Z" fill="#D19271"/>
<path d="M192.778 215.105C192.778 215.105 191.768 219.347 192.088 219.149C192.384 218.95 208.721 219.645 208.721 219.645L192.778 215.105Z" fill="#D19271"/>
<path d="M195.883 222.175L209.115 222.473L213.92 231.453L201.895 240.532L199.505 240.73L195.883 222.175Z" fill="#F8D5C3"/>
<path d="M198.767 107.223L175.851 101.517L163.531 98.0442L150.964 93.8271L132.976 89.3619L116.959 111.192L109.567 157.827L102.175 180.897L91.8255 166.758L90.8398 140.215L93.7968 102.757L111.785 72.7417L109.074 57.3617L118.684 33.2996L119.67 17.1754L127.062 36.2763L124.105 18.1677L132.976 0.307129V11.7181L137.411 20.6483L136.426 10.7258L147.514 23.8732L164.27 28.8344L149.978 19.16L146.035 8.24516L157.37 15.6871L167.227 16.6793L160.327 7.74904L174.865 15.1909L226.858 21.6406L238.932 30.3228L264.312 42.2299L268.747 50.1679L280.082 60.8346L282.053 71.2533L302.998 88.1216L308.912 135.75L308.419 169.735L295.606 185.363L289.938 162.789L285.01 104.246L261.601 85.8891L225.133 101.021L198.767 107.223Z" fill="#2A232B"/>
<path d="M198.768 107.223L153.921 84.8968L127.062 36.2764L124.106 18.1677L132.976 0.059082V11.47L137.412 20.4003L163.285 43.9663L191.375 63.0672L193.839 98.0442L198.768 107.223ZM132.976 89.3619L111.785 72.7417L109.075 57.3618L118.685 33.2996L131.744 72.2456L167.474 98.7884L132.976 89.3619ZM146.036 8.24518L149.978 19.16L164.27 28.5864L214.538 43.2221L226.612 70.2611L216.263 99.7806L198.521 106.726L224.887 100.525C224.887 100.525 248.789 58.1059 248.789 56.1214C248.789 54.1369 232.279 31.3151 232.279 31.3151L162.792 20.8964L150.718 15.9351L146.036 8.24518ZM282.054 71.2533L261.602 85.8891L236.715 95.8116L262.587 72.9898L268.501 50.1679L279.836 60.5866L282.054 71.2533ZM285.011 104.246L293.389 98.7884L302.999 88.1216L293.389 119.874L286.982 130.789L285.011 104.246ZM116.96 111.192L109.567 157.827L93.5508 102.757L108.335 78.6952L116.96 111.192Z" fill="#221B23"/>
<path d="M148.992 26.354L211.827 43.9665L226.857 70.7574L216.262 100.277L199.752 57.8581L162.545 39.2533L148.992 26.354ZM235.728 91.3466L262.833 73.238L268.747 50.4162L264.312 42.4781L238.932 30.5711L256.673 52.1526L255.195 65.0519L235.728 91.3466Z" fill="#322C33"/>
</g>
<defs>
<clipPath id="clip0_1403_7">
<rect width="400" height="456" fill="white"/>
</clipPath>
</defs>
</svg>
